<svg xmlns="http://www.w3.org/2000/svg" xmlns:xlink="http://www.w3.org/1999/xlink" width="500" zoomAndPan="magnify" viewBox="0 0 375 374.999991" height="500" preserveAspectRatio="xMidYMid meet" version="1.0"><defs><clipPath id="d4029232ca"><path d="M 4 13.828125 L 328 13.828125 L 328 287 L 4 287 Z M 4 13.828125 " clip-rule="nonzero"/></clipPath><clipPath id="822b468866"><path d="M 0.175781 45 L 374.796875 45 L 374.796875 361.078125 L 0.175781 361.078125 Z M 0.175781 45 " clip-rule="nonzero"/></clipPath></defs><g clip-path="url(#d4029232ca)"><path fill="#a94a05" d="M 245.648438 169.765625 L 209.1875 210.25 L 209.1875 80.074219 C 222.324219 71.363281 234.546875 62.394531 245.648438 53.433594 Z M 197.125 223.640625 L 167.046875 257.039062 L 160.664062 252.296875 L 160.664062 108.617188 C 172.570312 102.492188 184.804688 95.546875 197.125 87.84375 Z M 148.601562 243.328125 L 112.140625 216.230469 L 112.140625 129.71875 C 123.574219 125.753906 135.835938 120.683594 148.601562 114.597656 Z M 178.160156 13.824219 C 82.238281 13.824219 4.476562 91.585938 4.476562 187.507812 C 4.476562 224.234375 15.894531 258.289062 35.351562 286.34375 L 79.363281 210.761719 L 167.046875 275.929688 L 263.035156 169.355469 L 327.128906 98.195312 C 296.761719 47.652344 241.414062 13.824219 178.160156 13.824219 " fill-opacity="1" fill-rule="nonzero"/></g><g clip-path="url(#822b468866)"><path fill="#a94a05" d="M 374.796875 45.269531 L 173.722656 350.542969 L 83.550781 256.179688 L 0.175781 355.730469 L 58.660156 313.53125 C 89.792969 343.066406 131.859375 361.1875 178.160156 361.1875 C 274.082031 361.1875 351.839844 283.429688 351.839844 187.507812 C 351.839844 169.855469 349.199219 152.820312 344.300781 136.769531 L 374.796875 45.269531 " fill-opacity="1" fill-rule="nonzero"/></g></svg>